<?xml version="1.0" encoding="utf-8"?>
<!-- Generator: Adobe Illustrator 16.0.0, SVG Export Plug-In . SVG Version: 6.00 Build 0)  -->
<!DOCTYPE svg PUBLIC "-//W3C//DTD SVG 1.1//EN" "http://www.w3.org/Graphics/SVG/1.1/DTD/svg11.dtd">
<svg version="1.1" id="Layer_1" xmlns="http://www.w3.org/2000/svg" xmlns:xlink="http://www.w3.org/1999/xlink" x="0px" y="0px"
	 width="16px" height="16px" viewBox="0 0 16 16" enable-background="new 0 0 16 16" xml:space="preserve">
<g>
	<path fill="#D9532D" d="M8,15.286c-4.083,0-7.046-3.216-7.046-7.647H4.55c0,2.017,1.066,4.052,3.45,4.052s3.451-2.036,3.451-4.052
		h3.595C15.046,12.07,12.083,15.286,8,15.286z"/>
	<path fill="#D9532D" d="M4.71,2.669c0,1.083-0.877,1.96-1.958,1.96s-1.957-0.876-1.957-1.96c0-1.079,0.876-1.956,1.957-1.956
		S4.71,1.59,4.71,2.669z"/>
	<path fill="#D9532D" d="M15.205,2.669c0,1.083-0.876,1.96-1.957,1.96c-1.082,0-1.957-0.876-1.957-1.96
		c0-1.079,0.875-1.956,1.957-1.956C14.329,0.714,15.205,1.59,15.205,2.669z"/>
</g>
<path fill="#D9532D" d="M187.136,36.152c-5.904,0-10.188-4.65-10.188-11.059h5.199c0,2.916,1.543,5.859,4.989,5.859
	c3.447,0,4.99-2.943,4.99-5.859h5.199C197.325,31.502,193.04,36.152,187.136,36.152z"/>
<path fill="#D9532D" d="M182.378,17.908c0,1.566-1.268,2.834-2.831,2.834s-2.83-1.268-2.83-2.834c0-1.561,1.267-2.828,2.83-2.828
	S182.378,16.348,182.378,17.908z"/>
<path fill="#D9532D" d="M197.556,17.908c0,1.566-1.268,2.834-2.831,2.834c-1.564,0-2.83-1.268-2.83-2.834
	c0-1.561,1.266-2.828,2.83-2.828C196.288,15.08,197.556,16.348,197.556,17.908z"/>
</svg>
