<?xml version="1.0" encoding="utf-8"?>
<!-- Generator: Adobe Illustrator 16.0.0, SVG Export Plug-In . SVG Version: 6.00 Build 0)  -->
<!DOCTYPE svg PUBLIC "-//W3C//DTD SVG 1.1//EN" "http://www.w3.org/Graphics/SVG/1.1/DTD/svg11.dtd">
<svg version="1.1" id="Layer_1" xmlns="http://www.w3.org/2000/svg" xmlns:xlink="http://www.w3.org/1999/xlink" x="0px" y="0px"
	 width="232px" height="50px" viewBox="0 0 232 50" enable-background="new 0 0 232 50" xml:space="preserve">
<g>
	<g>
		<path fill="#D9532D" d="M11.574,33.438v10.984H5.903V14.643h5.671v2.723c1.651-2.098,4.018-3.26,6.652-3.26
			c5.536,0,9.554,4.107,9.554,11.297c0,7.188-4.018,11.34-9.554,11.34C15.682,36.742,13.359,35.67,11.574,33.438z M21.932,25.402
			c0-3.707-2.232-6.252-5.491-6.252c-1.831,0-3.885,1.027-4.866,2.457v7.59c0.938,1.383,3.035,2.5,4.866,2.5
			C19.699,31.697,21.932,29.152,21.932,25.402z"/>
		<path fill="#D9532D" d="M31.396,8.928c0-1.877,1.518-3.35,3.349-3.35c1.875,0,3.393,1.473,3.393,3.35
			c0,1.875-1.518,3.393-3.393,3.393C32.914,12.32,31.396,10.803,31.396,8.928z M31.932,36.207V14.643h5.671v21.564H31.932z"/>
		<path fill="#D9532D" d="M41.844,25.402c0-6.609,4.822-11.297,11.43-11.297c4.42,0,7.099,1.92,8.527,3.885l-3.705,3.482
			c-1.027-1.518-2.59-2.322-4.555-2.322c-3.438,0-5.849,2.5-5.849,6.252c0,3.75,2.411,6.295,5.849,6.295
			c1.965,0,3.527-0.893,4.555-2.367l3.705,3.482c-1.429,1.965-4.107,3.93-8.527,3.93C46.666,36.742,41.844,32.055,41.844,25.402z"/>
		<path fill="#D9532D" d="M79.48,36.207l-5.715-8.305l-2.589,2.768v5.537h-5.671V6.426h5.671V24.24l8.17-9.598h6.965l-8.527,9.777
			l8.796,11.787H79.48z"/>
		<path fill="#D9532D" d="M129.305,36.207V22.59c0-2.01-0.894-3.439-3.215-3.439c-2.009,0-3.661,1.34-4.465,2.5v14.557h-5.715V22.59
			c0-2.01-0.893-3.439-3.214-3.439c-1.964,0-3.616,1.34-4.464,2.5v14.557h-5.671V14.643h5.671v2.768
			c0.938-1.25,3.75-3.305,7.053-3.305c3.17,0,5.224,1.475,5.982,3.885c1.251-1.92,4.108-3.885,7.412-3.885
			c3.974,0,6.34,2.1,6.34,6.52v15.582H129.305z"/>
		<path fill="#D9532D" d="M139.26,25.402c0-6.252,4.644-11.297,11.162-11.297c6.474,0,10.805,4.822,10.805,11.832v1.34h-16.028
			c0.401,2.633,2.545,4.822,6.205,4.822c1.831,0,4.331-0.76,5.715-2.1l2.545,3.75c-2.143,1.965-5.536,2.992-8.885,2.992
			C144.216,36.742,139.26,32.322,139.26,25.402z M150.422,18.75c-3.527,0-5.046,2.455-5.269,4.598h10.626
			C155.601,21.295,154.172,18.75,150.422,18.75z"/>
		<path fill="#D9532D" d="M209.891,33.438v10.984h-5.671V14.643h5.671v2.723c1.651-2.098,4.018-3.26,6.652-3.26
			c5.536,0,9.554,4.107,9.554,11.297c0,7.188-4.018,11.34-9.554,11.34C213.998,36.742,211.676,35.67,209.891,33.438z
			 M220.248,25.402c0-3.707-2.232-6.252-5.491-6.252c-1.831,0-3.885,1.027-4.866,2.457v7.59c0.938,1.383,3.035,2.5,4.866,2.5
			C218.016,31.697,220.248,29.152,220.248,25.402z"/>
	</g>
</g>
<path fill="#D9532D" d="M187.136,36.152c-5.904,0-10.188-4.65-10.188-11.059h5.199c0,2.916,1.543,5.859,4.989,5.859
	c3.447,0,4.99-2.943,4.99-5.859h5.199C197.325,31.502,193.04,36.152,187.136,36.152z"/>
<path fill="#D9532D" d="M182.378,17.908c0,1.566-1.268,2.834-2.831,2.834s-2.83-1.268-2.83-2.834c0-1.561,1.267-2.828,2.83-2.828
	S182.378,16.348,182.378,17.908z"/>
<path fill="#D9532D" d="M197.556,17.908c0,1.566-1.268,2.834-2.831,2.834c-1.564,0-2.83-1.268-2.83-2.834
	c0-1.561,1.266-2.828,2.83-2.828C196.288,15.08,197.556,16.348,197.556,17.908z"/>
</svg>
